<svg width="10" height="16" viewBox="0 0 10 16" fill="none" xmlns="http://www.w3.org/2000/svg">
<path d="M1 3.76498C1.22773 3.06326 1.64521 2.43829 2.20605 1.95899C2.7669 1.47968 3.4491 1.16501 4.17773 1.0494C4.90637 0.933799 5.65331 1.02202 6.33496 1.3042C7.01662 1.58637 7.60629 2.05166 8.04004 2.64844C8.47378 3.24521 8.73419 3.95008 8.79217 4.68554C8.85015 5.42101 8.70314 6.15806 8.36827 6.81543C8.0334 7.4728 7.52385 8.02514 6.89483 8.41064C6.26582 8.79614 5.54244 9.00017 4.80469 9.00017V9.99982M4.85449 14V14.1L4.75488 14.1002V14H4.85449Z" stroke="#C09966" stroke-width="2" stroke-linecap="round" stroke-linejoin="round"/>
</svg>
