<svg width="18" height="19" viewBox="0 0 18 19" fill="none" xmlns="http://www.w3.org/2000/svg">
<path d="M10.3873 0.53025C9.55436 -0.17675 8.33621 -0.17675 7.50331 0.53025L0.794302 6.22479C0.290632 6.6523 0 7.28154 0 7.94454V17.2497C0 18.2162 0.778737 18.9997 1.73936 18.9997H4.72112C5.68175 18.9997 6.46049 18.2162 6.46049 17.2497V13.2471C6.46049 12.5678 6.99899 12.0151 7.66999 11.9975H10.2206C10.8916 12.0151 11.4301 12.5678 11.4301 13.2471V17.2497C11.4301 18.2162 12.2088 18.9997 13.1695 18.9997H16.1512C17.1118 18.9997 17.8906 18.2162 17.8906 17.2497V7.94454C17.8906 7.28154 17.6 6.6523 17.0962 6.22479L10.3873 0.53025Z" fill="#C09966"/>
</svg>
