<svg width="21" height="20" viewBox="0 0 21 20" fill="none" xmlns="http://www.w3.org/2000/svg">
<path d="M10.5891 13.375L13.9178 10M13.9178 10L10.5891 6.625M13.9178 10H1.71234M1.71234 4.65402V4.60022C1.71234 3.3401 1.71234 2.70957 1.95422 2.22827C2.16698 1.80491 2.50622 1.46095 2.92379 1.24524C3.39849 1 4.02039 1 5.26324 1H15.9153C17.1581 1 17.7787 1 18.2534 1.24524C18.671 1.46095 19.0114 1.80491 19.2241 2.22827C19.4658 2.7091 19.4658 3.33887 19.4658 4.59652V15.404C19.4658 16.6617 19.4658 17.2905 19.2241 17.7714C19.0114 18.1947 18.671 18.5393 18.2534 18.755C17.7792 19 17.1589 19 15.9185 19H5.2596C4.01917 19 3.39803 19 2.92379 18.755C2.50622 18.5393 2.16698 18.1944 1.95422 17.771C1.71234 17.2897 1.71234 16.6601 1.71234 15.4V15.3438" stroke="#C09966" stroke-width="2" stroke-linecap="round" stroke-linejoin="round"/>
</svg>
