<svg width="22" height="21" viewBox="0 0 22 21" fill="none" xmlns="http://www.w3.org/2000/svg">
<path d="M16.9814 18.2345C15.6294 16.7246 13.665 15.7744 11.4788 15.7744C9.29247 15.7744 7.32795 16.7246 5.97596 18.2345M11.4788 19.9937C6.23569 19.9937 1.98535 15.7433 1.98535 10.5002C1.98535 5.25718 6.23569 1.00684 11.4788 1.00684C16.7218 1.00684 20.9722 5.25718 20.9722 10.5002C20.9722 15.7433 16.7218 19.9937 11.4788 19.9937ZM11.4788 12.6099C9.73107 12.6099 8.31429 11.1931 8.31429 9.44542C8.31429 7.69773 9.73107 6.28095 11.4788 6.28095C13.2264 6.28095 14.6432 7.69773 14.6432 9.44542C14.6432 11.1931 13.2264 12.6099 11.4788 12.6099Z" stroke="white" stroke-width="2" stroke-linecap="round" stroke-linejoin="round"/>
</svg>
