<svg width="22" height="21" viewBox="0 0 22 21" fill="none" xmlns="http://www.w3.org/2000/svg">
<path d="M16.5132 18.1333C15.1788 16.643 13.24 15.7052 11.0822 15.7052C8.92437 15.7052 6.98541 16.643 5.65102 18.1333M11.0822 19.8696C5.90737 19.8696 1.71234 15.6746 1.71234 10.4997C1.71234 5.32491 5.90737 1.12988 11.0822 1.12988C16.257 1.12988 20.4521 5.32491 20.4521 10.4997C20.4521 15.6746 16.257 19.8696 11.0822 19.8696ZM11.0822 12.5819C9.35726 12.5819 7.95892 11.1836 7.95892 9.45865C7.95892 7.7337 9.35726 6.33536 11.0822 6.33536C12.8071 6.33536 14.2055 7.7337 14.2055 9.45865C14.2055 11.1836 12.8071 12.5819 11.0822 12.5819Z" stroke="#C09966" stroke-width="2" stroke-linecap="round" stroke-linejoin="round"/>
</svg>
