<svg width="24" height="25" viewBox="0 0 24 25" fill="white" xmlns="http://www.w3.org/2000/svg">
<path d="M14 12.8691H20M14 16.8691H20M14 20.8691H20M4 5.86914C4 5.60392 4.10536 5.34957 4.29289 5.16203C4.48043 4.9745 4.73478 4.86914 5 4.86914H19C19.2652 4.86914 19.5196 4.9745 19.7071 5.16203C19.8946 5.34957 20 5.60392 20 5.86914V7.86914C20 8.13436 19.8946 8.38871 19.7071 8.57625C19.5196 8.76378 19.2652 8.86914 19 8.86914H5C4.73478 8.86914 4.48043 8.76378 4.29289 8.57625C4.10536 8.38871 4 8.13436 4 7.86914V5.86914ZM4 13.8691C4 13.6039 4.10536 13.3496 4.29289 13.162C4.48043 12.9745 4.73478 12.8691 5 12.8691H9C9.26522 12.8691 9.51957 12.9745 9.70711 13.162C9.89464 13.3496 10 13.6039 10 13.8691V19.8691C10 20.1344 9.89464 20.3887 9.70711 20.5762C9.51957 20.7638 9.26522 20.8691 9 20.8691H5C4.73478 20.8691 4.48043 20.7638 4.29289 20.5762C4.10536 20.3887 4 20.1344 4 19.8691V13.8691Z" stroke="white" stroke-width="2" stroke-linecap="round" stroke-linejoin="round"/>
</svg>
