<svg width="11" height="12" viewBox="0 0 11 12" fill="none" xmlns="http://www.w3.org/2000/svg">
<path d="M6.625 4.88889V8.77778M4.375 4.88889V8.77778M2.125 2.66667V9.22222C2.125 9.8445 2.125 10.1554 2.24762 10.3931C2.35548 10.6022 2.52745 10.7725 2.73914 10.879C2.97955 11 3.29443 11 3.92326 11H7.07674C7.70557 11 8.01999 11 8.26041 10.879C8.47209 10.7725 8.64464 10.6022 8.7525 10.3931C8.875 10.1557 8.875 9.845 8.875 9.22394V2.66667M2.125 2.66667H3.25M2.125 2.66667H1M3.25 2.66667H7.75M3.25 2.66667C3.25 2.14895 3.25 1.89023 3.33564 1.68604C3.44982 1.41378 3.66868 1.19735 3.94434 1.08458C4.15108 1 4.41332 1 4.9375 1H6.0625C6.58668 1 6.84878 1 7.05552 1.08458C7.33118 1.19735 7.55013 1.41378 7.66431 1.68604C7.74994 1.89023 7.75 2.14896 7.75 2.66667M7.75 2.66667H8.875M8.875 2.66667H10" stroke="#C09966" stroke-width="1.5" stroke-linecap="round" stroke-linejoin="round"/>
</svg>
