<svg width="14" height="14" viewBox="0 0 14 14" fill="none" xmlns="http://www.w3.org/2000/svg">
<path d="M7 9.23437C6.91666 9.23437 6.83854 9.22146 6.76562 9.19562C6.6927 9.16979 6.625 9.12542 6.5625 9.0625L4.3125 6.8125C4.1875 6.6875 4.1275 6.54167 4.1325 6.375C4.1375 6.20833 4.1975 6.0625 4.3125 5.9375C4.4375 5.8125 4.58604 5.7475 4.75812 5.7425C4.93021 5.7375 5.07854 5.79729 5.20312 5.92188L6.375 7.09375V2.625C6.375 2.44792 6.435 2.29959 6.555 2.18C6.675 2.06042 6.82333 2.00042 7 2C7.17666 1.99959 7.3252 2.05959 7.44562 2.18C7.56604 2.30042 7.62583 2.44875 7.625 2.625V7.09375L8.79687 5.92188C8.92187 5.79688 9.07041 5.73688 9.24249 5.74188C9.41458 5.74688 9.56291 5.81208 9.68749 5.9375C9.80208 6.0625 9.86208 6.20833 9.86749 6.375C9.87291 6.54167 9.81291 6.6875 9.68749 6.8125L7.4375 9.0625C7.375 9.125 7.30729 9.16937 7.23437 9.19562C7.16145 9.22187 7.08333 9.23479 7 9.23437ZM3.25 12C2.90625 12 2.61208 11.8777 2.3675 11.6331C2.12292 11.3885 2.00042 11.0942 2 10.75V9.5C2 9.32292 2.06 9.17458 2.18 9.055C2.3 8.93542 2.44833 8.87542 2.625 8.875C2.80167 8.87458 2.95021 8.93458 3.07062 9.055C3.19104 9.17542 3.25083 9.32375 3.25 9.5V10.75H10.75V9.5C10.75 9.32292 10.81 9.17458 10.93 9.055C11.05 8.93542 11.1983 8.87542 11.375 8.875C11.5517 8.87458 11.7002 8.93458 11.8206 9.055C11.941 9.17542 12.0008 9.32375 12 9.5V10.75C12 11.0937 11.8777 11.3881 11.6331 11.6331C11.3885 11.8781 11.0942 12.0004 10.75 12H3.25Z" fill="#C09966"/>
</svg>
