<svg width="21" height="21" viewBox="0 0 21 21" fill="none" xmlns="http://www.w3.org/2000/svg">
<path fill-rule="evenodd" clip-rule="evenodd" d="M10.5 20.625C11.8296 20.625 13.1462 20.3631 14.3747 19.8543C15.6031 19.3455 16.7193 18.5996 17.6595 17.6595C18.5996 16.7193 19.3455 15.6031 19.8543 14.3747C20.3631 13.1462 20.625 11.8296 20.625 10.5C20.625 9.17037 20.3631 7.85375 19.8543 6.62533C19.3455 5.39691 18.5996 4.28074 17.6595 3.34054C16.7193 2.40035 15.6031 1.65455 14.3747 1.14572C13.1462 0.636891 11.8296 0.375 10.5 0.375C7.81468 0.375 5.23935 1.44174 3.34054 3.34054C1.44174 5.23935 0.375 7.81468 0.375 10.5C0.375 13.1853 1.44174 15.7606 3.34054 17.6595C5.23935 19.5583 7.81468 20.625 10.5 20.625ZM10.239 14.595L15.864 7.845L14.136 6.405L9.2985 12.2089L6.79537 9.70463L5.20463 11.2954L8.57963 14.6704L9.45038 15.5411L10.239 14.595Z" fill="#34C759"/>
</svg>
