<svg width="17" height="18" viewBox="0 0 17 18" fill="none" xmlns="http://www.w3.org/2000/svg">
<path d="M4.75814 15.6454C5.85938 16.2664 7.13711 16.6217 8.4997 16.6217C12.6418 16.6217 16 13.3385 16 9.28843C16 5.23833 12.6421 1.95508 8.5 1.95508C4.35786 1.95508 1 5.23833 1 9.28843C1 10.6208 1.36337 11.8701 1.99849 12.9469L2.00095 12.951C2.06207 13.0546 2.09288 13.1069 2.10684 13.1562C2.12001 13.2028 2.12368 13.2447 2.12031 13.2929C2.11669 13.3447 2.09884 13.3984 2.06224 13.5057L1.42155 15.3851L1.42074 15.3876C1.28557 15.7841 1.21798 15.9824 1.26615 16.1145C1.30816 16.2296 1.4014 16.3205 1.51921 16.3616C1.65401 16.4086 1.85587 16.3428 2.25962 16.2112L2.26465 16.2094L4.18671 15.583C4.29614 15.5473 4.35178 15.5292 4.40466 15.5257C4.45396 15.5224 4.49648 15.5267 4.54411 15.5396C4.59474 15.5533 4.6482 15.5834 4.7547 15.6435L4.75814 15.6454Z" stroke="#387ED1" stroke-width="2" stroke-linecap="round" stroke-linejoin="round"/>
</svg>
