<svg width="15" height="15" viewBox="0 0 15 15" fill="none" xmlns="http://www.w3.org/2000/svg">
<path d="M8.66254 0.00224469C8.65668 0.00458844 8.64965 0.00810408 8.64379 0.0116197L0.243789 1.60537C0.100821 1.63232 -0.0023046 1.75889 3.91529e-05 1.90537V13.0991C-0.0023046 13.2456 0.100821 13.3722 0.243789 13.3991L8.64379 14.9929C8.73051 15.0093 8.82074 14.987 8.88988 14.9308C8.95785 14.8745 8.99887 14.7913 9.00004 14.7022V13.2022H14.1C14.4282 13.2022 14.7 12.9304 14.7 12.6022V2.40224C14.7 2.07412 14.4282 1.80224 14.1 1.80224H9.00004V0.302245C9.00121 0.215526 8.96371 0.133495 8.89926 0.0760729C8.8348 0.0186509 8.74809 -0.0083022 8.66254 0.00224469ZM8.40004 0.658495V1.96162C8.3602 2.04482 8.3602 2.14092 8.40004 2.22412V12.846C8.39184 12.8858 8.39184 12.928 8.40004 12.9679V14.346L0.600039 12.8554V2.14912L8.40004 0.658495ZM9.00004 2.40224H14.1V12.6022H9.00004V11.1022H10.2V10.5022H9.00004V8.70224H10.2V8.10224H9.00004V6.60224H10.2V6.00224H9.00004V4.50224H10.2V3.90224H9.00004V2.40224ZM10.8 3.90224V4.50224H13.2V3.90224H10.8ZM2.00629 4.70849L3.64691 7.51162L1.85629 10.3147H3.35629L4.33129 8.50537C4.39926 8.33076 4.44379 8.19717 4.46254 8.11162H4.47191C4.51059 8.29443 4.54809 8.41865 4.58441 8.48662L5.55941 10.3147H7.05004L5.32504 7.48349L7.00316 4.70849H5.59691L4.70629 6.36787C4.62074 6.58467 4.5598 6.75576 4.52816 6.86474H4.51879C4.46957 6.68193 4.41332 6.51904 4.35004 6.38662L3.54379 4.70849H2.00629ZM10.8 6.00224V6.60224H13.2V6.00224H10.8ZM10.8 8.10224V8.70224H13.2V8.10224H10.8ZM10.8 10.5022V11.1022H13.2V10.5022H10.8Z" fill="white"/>
</svg>
