<svg width="19" height="17" viewBox="0 0 19 17" fill="none" xmlns="http://www.w3.org/2000/svg">
<path d="M9.5 4.13867C14.7808 4.13867 17.2188 8.50023 17.2188 8.50023C17.2188 8.50023 14.7808 12.8618 9.5 12.8618C4.21919 12.8618 1.78125 8.50023 1.78125 8.50023C1.78125 8.50023 4.21919 4.13867 9.5 4.13867Z" stroke="#387ED1" stroke-linejoin="round"/>
<path d="M11.8037 8.5C11.8108 8.78299 11.7546 9.06439 11.6385 9.32768C11.5223 9.59097 11.3486 9.83084 11.1274 10.0332C10.9062 10.2356 10.642 10.3964 10.3504 10.5062C10.0589 10.616 9.74568 10.6725 9.42932 10.6725C9.11296 10.6725 8.79979 10.616 8.5082 10.5062C8.2166 10.3964 7.95246 10.2356 7.73127 10.0332C7.51009 9.83084 7.33632 9.59097 7.22017 9.32768C7.10403 9.06439 7.04784 8.78299 7.05492 8.5C7.05492 7.93641 7.30514 7.39591 7.75054 6.9974C8.19594 6.59888 8.80003 6.375 9.42991 6.375C10.0598 6.375 10.6639 6.59888 11.1093 6.9974C11.5547 7.39591 11.8049 7.93641 11.8049 8.5H11.8037Z" stroke="#387ED1" stroke-linejoin="round"/>
</svg>
