<svg width="17" height="17" viewBox="0 0 17 17" fill="none" xmlns="http://www.w3.org/2000/svg">
<g clip-path="url(#clip0_368_509)">
<path fill-rule="evenodd" clip-rule="evenodd" d="M8.5 1.94824C12.1186 1.94824 15.0521 4.88171 15.0521 8.50033C15.0521 8.79372 15.2899 9.03158 15.5833 9.03158C15.8767 9.03158 16.1146 8.79372 16.1146 8.50033C16.1146 4.29491 12.7054 0.885742 8.5 0.885742C8.20661 0.885742 7.96875 1.12359 7.96875 1.41699C7.96875 1.71039 8.20661 1.94824 8.5 1.94824Z" fill="#387ED1"/>
<path fill-rule="evenodd" clip-rule="evenodd" d="M8.5 5.84375C8.79339 5.84375 9.03125 6.0816 9.03125 6.375V8.67708H11.3333C11.6267 8.67708 11.8646 8.91494 11.8646 9.20833C11.8646 9.50172 11.6267 9.73958 11.3333 9.73958H8.5C8.20661 9.73958 7.96875 9.50172 7.96875 9.20833V6.375C7.96875 6.0816 8.20661 5.84375 8.5 5.84375Z" fill="#387ED1"/>
<path opacity="0.5" fill-rule="evenodd" clip-rule="evenodd" d="M6.44549 1.69848C6.55115 1.97219 6.41492 2.27974 6.1412 2.3854C6.04102 2.42407 5.94202 2.46514 5.84428 2.50853C5.57611 2.62758 5.26221 2.5067 5.14317 2.23853C5.02412 1.97037 5.145 1.65647 5.41316 1.53743C5.52685 1.48696 5.64202 1.43918 5.75857 1.39419C6.03229 1.28852 6.33983 1.42476 6.44549 1.69848ZM4.00041 3.00374C4.20276 3.2162 4.19455 3.55248 3.98209 3.75482C3.90441 3.8288 3.82854 3.90467 3.75456 3.98235C3.55222 4.19482 3.21594 4.20303 3.00348 4.00068C2.79101 3.79833 2.78281 3.46207 2.98515 3.2496C3.07105 3.1594 3.15914 3.07131 3.24934 2.98541C3.4618 2.78307 3.79807 2.79127 4.00041 3.00374ZM2.23827 5.14343C2.50644 5.26248 2.62732 5.57637 2.50827 5.84454C2.46487 5.94228 2.42381 6.04128 2.38514 6.14146C2.27948 6.41518 1.97193 6.55141 1.69822 6.44576C1.4245 6.34009 1.28826 6.03255 1.39392 5.75884C1.43892 5.64228 1.48669 5.52711 1.53716 5.41343C1.65621 5.14526 1.97011 5.02438 2.23827 5.14343ZM1.43156 7.79476C1.72488 7.80185 1.95691 8.04537 1.94982 8.33869C1.94853 8.39238 1.94788 8.44622 1.94788 8.50019C1.94788 8.55424 1.94853 8.60807 1.94982 8.66176C1.95691 8.95508 1.72488 9.19861 1.43156 9.20569C1.13824 9.21278 0.894719 8.98073 0.887636 8.68741C0.886134 8.62521 0.885376 8.56281 0.885376 8.50019C0.885376 8.43765 0.886134 8.37524 0.887636 8.31305C0.894719 8.01973 1.13824 7.78768 1.43156 7.79476ZM15.3017 10.5547C15.5754 10.6603 15.7116 10.9679 15.606 11.2416C15.561 11.3582 15.5132 11.4734 15.4627 11.587C15.3437 11.8552 15.0298 11.9761 14.7616 11.857C14.4935 11.738 14.3726 11.4241 14.4917 11.1559C14.535 11.0581 14.5761 10.9592 14.6148 10.859C14.7205 10.5852 15.028 10.449 15.3017 10.5547ZM1.69822 10.5547C1.97193 10.449 2.27948 10.5852 2.38514 10.859C2.42381 10.9592 2.46487 11.0581 2.50827 11.1559C2.62732 11.4241 2.50644 11.738 2.23827 11.857C1.97011 11.9761 1.65621 11.8552 1.53716 11.587C1.48669 11.4734 1.43892 11.3582 1.39392 11.2416C1.28826 10.9679 1.4245 10.6603 1.69822 10.5547ZM13.9964 12.9997C14.2089 13.2021 14.2171 13.5384 14.0148 13.7509C13.9288 13.841 13.8408 13.9291 13.7506 14.015C13.5381 14.2174 13.2019 14.2091 12.9995 13.9967C12.7971 13.7842 12.8054 13.448 13.0179 13.2456C13.0955 13.1717 13.1713 13.0958 13.2454 13.0181C13.4477 12.8057 13.784 12.7974 13.9964 12.9997ZM3.00348 12.9997C3.21594 12.7974 3.55222 12.8057 3.75456 13.0181C3.82854 13.0958 3.90441 13.1717 3.98209 13.2456C4.19455 13.448 4.20276 13.7842 4.00041 13.9967C3.79807 14.2091 3.4618 14.2174 3.24934 14.015C3.15915 13.9291 3.07105 13.841 2.98515 13.7509C2.78281 13.5384 2.79101 13.2021 3.00348 12.9997ZM5.14317 14.7619C5.26222 14.4938 5.57611 14.3728 5.84428 14.4919C5.94202 14.5353 6.04102 14.5763 6.1412 14.615C6.41492 14.7207 6.55115 15.0283 6.44549 15.302C6.33983 15.5757 6.03229 15.7119 5.75857 15.6063C5.64202 15.5613 5.52685 15.5135 5.41316 15.463C5.145 15.344 5.02412 15.0301 5.14317 14.7619ZM11.8568 14.7619C11.9758 15.0301 11.8549 15.344 11.5867 15.463C11.473 15.5135 11.3579 15.5613 11.2414 15.6063C10.9677 15.7119 10.6601 15.5757 10.5544 15.302C10.4488 15.0283 10.585 14.7207 10.8587 14.615C10.9589 14.5763 11.0579 14.5353 11.1556 14.4919C11.4238 14.3728 11.7377 14.4938 11.8568 14.7619ZM7.79446 15.5687C7.80161 15.2753 8.04514 15.0433 8.33839 15.0504C8.39208 15.0516 8.44591 15.0523 8.49996 15.0523C8.55401 15.0523 8.60784 15.0516 8.66153 15.0504C8.95478 15.0433 9.19831 15.2753 9.20546 15.5687C9.21254 15.8619 8.98049 16.1054 8.68717 16.1126C8.62491 16.1141 8.5625 16.1148 8.49996 16.1148C8.43741 16.1148 8.37501 16.1141 8.31275 16.1126C8.01943 16.1054 7.78738 15.8619 7.79446 15.5687Z" fill="#387ED1"/>
</g>
<defs>
<clipPath id="clip0_368_509">
<rect width="17" height="17" fill="white"/>
</clipPath>
</defs>
</svg>
