<svg width="97" height="97" viewBox="0 0 97 97" fill="none" xmlns="http://www.w3.org/2000/svg">
<path d="M6.92836 48.5005V6.92912H9.81834H12.7083V12.9313V18.9336H15.5982H18.4882V27.8257V36.7178H15.5982H12.7083V60.505V84.2915H18.7105H24.7128V81.4016V78.5117H30.715H36.7172V81.4016V84.2915H39.6072H42.4972V81.4016V78.5117H48.4994H54.5016V75.3993V72.287H51.6116H48.7216V69.3971V66.5072H51.6116H54.5016V69.3971V72.287H57.3916H60.2815V78.2893V84.2915H66.2838H72.286V81.1792V78.0668H69.396H66.506V75.1769V72.287H63.6233H60.7406L60.6222 60.3934L60.5037 48.5005L48.6104 48.3828L36.7171 48.265V51.3842V54.5042H30.7148H24.7126V57.3941V60.284H21.8226H18.9327V57.3941V54.5042H21.8226H24.7126V51.6343V48.7645L27.7137 48.6329L30.7148 48.5012L30.8465 45.4998L30.9781 42.499H24.9556H18.933V39.6091V36.7185H24.9352H30.9375V30.7163V24.7141H33.8274H36.7174V21.8242V18.9343H39.6074H42.4974V12.932V6.92981H45.3744H48.2515L48.3755 12.8212L48.4995 18.7118L51.5006 18.8435L54.5017 18.9751V12.9528V6.92981H57.3917H60.2816V9.81972V12.7096H63.3939H66.5062V9.81972V6.92981H69.3962H72.2861V9.81972V12.7096H75.3984H78.5106V9.81972V6.92981H81.4006H84.2906V9.81972V12.7096H87.1805H90.0705L90.0709 15.7111L90.0714 18.7118H84.1799H78.2884L78.1643 24.6032L78.0403 30.4946H69.161H60.2817V33.6069V36.7185H54.5018H48.7219V33.8286V30.9387H51.6118H54.5018V27.8264V24.7141H48.4996H42.4974V27.6047V30.4946H39.6074H36.7174V36.4968V42.499H51.6118H66.5062V39.6091V36.7185H78.2884H90.0705V39.6091V42.499H87.1806H84.2906V45.6113V48.723H87.1806H90.0705V51.6136V54.5035H84.3109H78.5514L78.4197 51.502L78.2881 48.5012L75.287 48.3696L72.2859 48.238V45.3681V42.499H69.3959H66.5062L66.5059 48.5012V54.5035H72.2859H78.0657V57.3934V60.2833H75.1758H72.2859V66.2855V72.2877H75.1758H78.0657V78.2899V84.2922H84.068H90.0702V87.1821V90.072H48.4992H6.92822L6.92836 48.5005ZM66.4152 21.7126L66.2836 18.7112H63.3936H60.5036L60.372 21.7126L60.2403 24.7134H63.3932H66.5461L66.4152 21.7126ZM84.2904 75.1769V72.287H81.4005H78.5105V66.5072V60.7274H84.2904H90.0703V63.6173V66.5072H87.1804H84.2904V69.3971V72.287H87.1804H90.0703V75.1769V78.0668H87.1804H84.2904V75.1769ZM18.9328 69.3971V66.5072H21.8228H24.7128V69.3971V72.287H21.8228H18.9328V69.3971ZM30.9372 69.3971V66.5072H33.8272H36.7172V63.6173V60.7274H39.6072H42.4972V66.5072V72.287H36.7172H30.9372V69.3971ZM48.7216 57.3927V54.5028H51.6116H54.5016V57.3927V60.2826H51.6116H48.7216V57.3927ZM84.2904 27.604V24.7134H87.1804H90.0703V27.604V30.4939H87.1804H84.2904V27.604ZM21.7116 18.6045L18.9328 18.4451V12.6868V6.92773H21.8228H24.7128V12.93C24.7128 16.2314 24.6643 18.8941 24.6019 18.847C24.5395 18.7777 23.24 18.6876 21.7116 18.6045ZM30.9372 9.81903V6.92912H33.8272H36.7172V9.81903V12.7089H33.8272H30.9372V9.81903Z" fill="black"/>
</svg>
