<svg width="97" height="97" viewBox="0 0 97 97" fill="none" xmlns="http://www.w3.org/2000/svg">
<path d="M6.92861 48.5005V6.92912H9.81858H12.7086V12.9313V18.9336H15.5985H18.4884V27.8257V36.7178H15.5985H12.7086V60.505V84.2915H18.7108H24.713V81.4016V78.5117H30.7152H36.7174V81.4016V84.2915H39.6074H42.4974V81.4016V78.5117H48.4996H54.5018V75.3993V72.287H51.6119H48.7219V69.3971V66.5072H51.6119H54.5018V69.3971V72.287H57.3918H60.2817V78.2893V84.2915H66.284H72.2862V81.1792V78.0668H69.3963H66.5063V75.1769V72.287H63.6236H60.7409L60.6224 60.3934L60.5039 48.5005L48.6106 48.3828L36.7173 48.265V51.3842V54.5042H30.7151H24.7129V57.3941V60.284H21.8229H18.9329V57.3941V54.5042H21.8229H24.7129V51.6343V48.7645L27.714 48.6329L30.7151 48.5012L30.8467 45.4998L30.9784 42.499H24.9558H18.9333V39.6091V36.7185H24.9355H30.9377V30.7163V24.7141H33.8277H36.7177V21.8242V18.9343H39.6076H42.4976V12.932V6.92981H45.3746H48.2517L48.3757 12.8212L48.4998 18.7118L51.5009 18.8435L54.502 18.9751V12.9528V6.92981H57.392H60.2819V9.81972V12.7096H63.3942H66.5064V9.81972V6.92981H69.3964H72.2864V9.81972V12.7096H75.3986H78.5109V9.81972V6.92981H81.4008H84.2908V9.81972V12.7096H87.1808H90.0707L90.0712 15.7111L90.0716 18.7118H84.1801H78.2886L78.1646 24.6032L78.0406 30.4946H69.1612H60.2819V33.6069V36.7185H54.502H48.7221V33.8286V30.9387H51.6121H54.502V27.8264V24.7141H48.4998H42.4976V27.6047V30.4946H39.6076H36.7177V36.4968V42.499H51.6121H66.5065V39.6091V36.7185H78.2887H90.0708V39.6091V42.499H87.1809H84.2909V45.6113V48.723H87.1809H90.0708V51.6136V54.5035H84.3112H78.5516L78.42 51.502L78.2883 48.5012L75.2872 48.3696L72.2861 48.238V45.3681V42.499H69.3961H66.5065L66.5061 48.5012V54.5035H72.2861H78.066V57.3934V60.2833H75.176H72.2861V66.2855V72.2877H75.176H78.066V78.2899V84.2922H84.0682H90.0704V87.1821V90.072H48.4995H6.92847L6.92861 48.5005ZM66.4154 21.7126L66.2838 18.7112H63.3938H60.5038L60.3722 21.7126L60.2406 24.7134H63.3935H66.5463L66.4154 21.7126ZM84.2907 75.1769V72.287H81.4007H78.5107V66.5072V60.7274H84.2907H90.0706V63.6173V66.5072H87.1807H84.2907V69.3971V72.287H87.1807H90.0706V75.1769V78.0668H87.1807H84.2907V75.1769ZM18.933 69.3971V66.5072H21.823H24.713V69.3971V72.287H21.823H18.933V69.3971ZM30.9375 69.3971V66.5072H33.8275H36.7174V63.6173V60.7274H39.6074H42.4974V66.5072V72.287H36.7174H30.9375V69.3971ZM48.7219 57.3927V54.5028H51.6119H54.5018V57.3927V60.2826H51.6119H48.7219V57.3927ZM84.2907 27.604V24.7134H87.1807H90.0706V27.604V30.4939H87.1807H84.2907V27.604ZM21.7119 18.6045L18.933 18.4451V12.6868V6.92773H21.823H24.713V12.93C24.713 16.2314 24.6645 18.8941 24.6021 18.847C24.5398 18.7777 23.2402 18.6876 21.7119 18.6045ZM30.9375 9.81903V6.92912H33.8275H36.7174V9.81903V12.7089H33.8275H30.9375V9.81903Z" fill="white"/>
</svg>
