<svg width="91" height="91" viewBox="0 0 91 91" fill="none" xmlns="http://www.w3.org/2000/svg">
<g clip-path="url(#clip0_404_23)">
<path fill-rule="evenodd" clip-rule="evenodd" d="M0.133301 0.0664062H33.1845V32.9843H0.133301V0.0664062ZM82.5724 82.6388H91V90.9331H82.5724V82.6388ZM66.3764 82.624H74.804V90.5258H66.3764H66.369H57.9488V74.3668H66.1098V66.1762H74.4115V49.8468H82.839V57.8745H90.8667V66.1688H82.839V74.4631H74.5374H74.4115H66.3764V82.624ZM41.3529 66.0429H49.5138V57.7486H41.6195V49.4543H49.5138V41.1601H41.4862V49.4543H33.0512V41.1601H41.3455V16.5291H49.773V41.1527H57.934V49.4469H65.9617V41.1527H74.3892V49.4469H66.3764V57.7412H57.9488V74.0706H49.7804V90.5332H41.3529V66.0429ZM82.4317 41.1527H90.8593V49.4469H82.4317V41.1527ZM16.5959 41.1527H25.0235V49.4469H16.5959V41.1527ZM0.133301 41.1527H8.56087V49.4469H0.133301V41.1527ZM41.3529 0.0664062H49.7804V8.36068H41.3529V0.0664062ZM0 57.8745H33.0512V90.7924H0V57.8745ZM8.02767 65.8726H25.0235V82.8018H8.02767V65.8726ZM57.8081 0.0664062H90.8593V32.9843H57.8081V0.0664062ZM65.8432 8.06445H82.839V24.9937H65.8432V8.06445ZM8.16097 8.06445H25.1568V24.9937H8.16097V8.06445Z" fill="white"/>
</g>
<defs>
<clipPath id="clip0_404_23">
<rect width="91" height="91" fill="white"/>
</clipPath>
</defs>
</svg>
