<svg width="76" height="23" viewBox="0 0 76 23" fill="none" xmlns="http://www.w3.org/2000/svg">
<path d="M38.8298 8.52206C39.9404 8.52206 40.8691 8.91406 41.6158 9.69806C42.3624 10.4821 42.7358 11.6814 42.7358 13.2961C42.7358 14.9014 42.3624 16.1194 41.6158 16.9501C40.8784 17.7714 39.8751 18.1821 38.6058 18.1821C37.3458 18.1821 36.3564 17.7714 35.6378 16.9501C34.9191 16.1287 34.5598 14.9341 34.5598 13.3661C34.5598 12.5074 34.6858 11.7561 34.9378 11.1121C35.1898 10.4587 35.5211 9.95472 35.9318 9.60006C36.7624 8.88139 37.7284 8.52206 38.8298 8.52206ZM36.3098 13.2961C36.3098 15.6107 37.1124 16.7681 38.7178 16.7681C39.5764 16.7681 40.1784 16.4134 40.5238 15.7041C40.8411 15.0787 40.9998 14.3134 40.9998 13.4081C40.9998 12.5961 40.8598 11.8494 40.5798 11.1681C40.4211 10.7947 40.1784 10.5007 39.8518 10.2861C39.5344 10.0714 39.1191 9.96406 38.6058 9.96406C38.0924 9.96406 37.6491 10.1321 37.2758 10.4681C36.9118 10.8041 36.6598 11.2101 36.5198 11.6861C36.3798 12.1621 36.3098 12.6987 36.3098 13.2961ZM43.7446 18.0001V16.8661L44.2066 16.8241C44.4773 16.7961 44.6126 16.6654 44.6126 16.4321V9.92206L43.8146 9.88006V8.69006H47.6366C48.7193 8.69006 49.55 8.89072 50.1286 9.29206C50.7073 9.69339 50.9966 10.3514 50.9966 11.2661C50.9966 11.9007 50.8286 12.4234 50.4926 12.8341C50.166 13.2447 49.774 13.5434 49.3166 13.7301C49.6526 13.8514 49.9186 14.1361 50.1146 14.5841L51.1226 16.7821L51.9206 16.8101V18.0001H48.4626V16.8661L48.8686 16.8241C49.0833 16.7961 49.1906 16.7121 49.1906 16.5721C49.1906 16.5161 49.172 16.4507 49.1346 16.3761L48.4766 14.9761C48.374 14.7427 48.2573 14.5794 48.1266 14.4861C48.0053 14.3834 47.828 14.3321 47.5946 14.3321H46.3206V16.7681L47.2306 16.8101V18.0001H43.7446ZM46.3206 13.0021H47.5386C48.6866 13.0021 49.2606 12.4887 49.2606 11.4621C49.2606 10.8741 49.1066 10.4914 48.7986 10.3141C48.5 10.1367 48.0146 10.0481 47.3426 10.0481H46.3206V13.0021ZM59.1863 18.0001H52.5363V16.8661L52.9983 16.8241C53.269 16.7961 53.4043 16.6654 53.4043 16.4321V9.92206L52.6063 9.88006V8.69006H59.0183V11.0141L57.5903 11.1121V10.5521C57.5903 10.3934 57.567 10.2814 57.5203 10.2161C57.4736 10.1507 57.3616 10.1181 57.1843 10.1181H55.1123V12.5121H58.3463V13.9401H55.1123V16.5581H57.3663C57.5343 16.5581 57.6416 16.5254 57.6883 16.4601C57.735 16.3854 57.7583 16.2687 57.7583 16.1101V15.4101L59.1863 15.5081V18.0001ZM63.1179 16.7401C64.2379 16.7401 64.7979 16.2921 64.7979 15.3961C64.7979 14.9294 64.5506 14.5841 64.0559 14.3601C63.7946 14.2294 63.4539 14.1081 63.0339 13.9961C62.6232 13.8841 62.2779 13.7721 61.9979 13.6601C61.7272 13.5387 61.4519 13.3754 61.1719 13.1701C60.6212 12.7594 60.3459 12.1294 60.3459 11.2801C60.3459 10.4214 60.6399 9.74939 61.2279 9.26406C61.8252 8.76939 62.5999 8.52206 63.5519 8.52206C64.5132 8.52206 65.4046 8.71339 66.2259 9.09606V11.1961L64.7979 11.2941V10.4821C64.7979 10.3421 64.7792 10.2394 64.7419 10.1741C64.6392 9.99672 64.3079 9.90806 63.7479 9.90806C63.1972 9.90806 62.7866 10.0061 62.5159 10.2021C62.2546 10.3981 62.1239 10.7014 62.1239 11.1121C62.1239 11.4107 62.2359 11.6721 62.4599 11.8961C62.6092 12.0454 62.8286 12.1714 63.1179 12.2741C63.4166 12.3674 63.7292 12.4654 64.0559 12.5681C64.3919 12.6707 64.6859 12.7827 64.9379 12.9041C65.1992 13.0254 65.4699 13.1934 65.7499 13.4081C66.3192 13.8281 66.6039 14.4767 66.6039 15.3541C66.6039 16.2314 66.2866 16.9221 65.6519 17.4261C65.0266 17.9301 64.1959 18.1821 63.1599 18.1821C62.1332 18.1821 61.2092 17.9907 60.3879 17.6081V15.3961L61.8159 15.2981V16.1521C61.8159 16.2921 61.8346 16.3947 61.8719 16.4601C61.9092 16.5254 62.0212 16.5907 62.2079 16.6561C62.4039 16.7121 62.7072 16.7401 63.1179 16.7401ZM67.5063 18.0001V16.8661L67.9683 16.8241C68.239 16.7961 68.3743 16.6654 68.3743 16.4321V9.92206L67.5763 9.88006V8.69006H71.5803C72.6257 8.69006 73.4377 8.93739 74.0163 9.43206C74.6043 9.91739 74.8983 10.6501 74.8983 11.6301C74.8983 12.6101 74.567 13.3754 73.9043 13.9261C73.2417 14.4674 72.3643 14.7381 71.2724 14.7381H70.0823V16.7681L71.4263 16.8101V18.0001H67.5063ZM70.0823 13.3801H71.0903C72.453 13.3801 73.1343 12.8247 73.1343 11.7141C73.1343 11.0421 72.957 10.5987 72.6023 10.3841C72.257 10.1601 71.7017 10.0481 70.9363 10.0481H70.0823V13.3801Z" fill="#2D3748"/>
<path d="M22.4268 0H1.98798C1.34701 0 0.827393 0.502293 0.827393 1.1219V10.5297C0.827393 11.1493 1.34701 11.6516 1.98798 11.6516H6.18144V20.8795C6.18106 21.1769 6.30302 21.4623 6.52045 21.6727C6.73788 21.8831 7.03293 22.0014 7.34061 22.0014H17.0728C17.7138 22.0014 18.2334 21.4991 18.2334 20.8795V11.6557H22.4268C22.7345 11.6557 23.0296 11.5375 23.247 11.327C23.4644 11.1166 23.5864 10.8312 23.586 10.5338V1.1219C23.5864 0.824482 23.4644 0.539118 23.247 0.328681C23.0296 0.118244 22.7345 0 22.4268 0ZM2.17265 1.30179H11.5341V10.3512H2.17265V1.30179ZM16.8881 20.701H7.5267V11.6557H16.8881V20.701ZM22.2407 10.3512H12.8793V1.30179H22.2407V10.3512Z" fill="#2D3748"/>
<path d="M8.53247 7.32455C8.79757 7.56505 9.2123 7.55869 9.46937 7.31018C9.72645 7.06167 9.73303 6.66077 9.48424 6.4045L7.33494 4.32686C7.0714 4.07448 6.64672 4.07448 6.38317 4.32686L4.2282 6.4045C4.04907 6.56701 3.97571 6.81092 4.03678 7.04093C4.09785 7.27094 4.28365 7.45055 4.5216 7.50958C4.75954 7.56862 5.01186 7.4977 5.17997 7.32455L6.85338 5.70692L8.53247 7.32455Z" fill="#2D3748"/>
<path d="M15.8866 7.32455L17.56 5.70692L19.2334 7.32455C19.4985 7.56505 19.9132 7.55869 20.1703 7.31018C20.4274 7.06167 20.434 6.66077 20.1852 6.4045L18.0359 4.32686C17.7723 4.07448 17.3476 4.07448 17.0841 4.32686L14.9348 6.4045C14.686 6.66077 14.6926 7.06167 14.9497 7.31018C15.2067 7.55869 15.6215 7.56505 15.8866 7.32455Z" fill="#2D3748"/>
<path d="M10.5326 14.6767C10.2671 14.4366 9.85238 14.4435 9.59568 14.6924C9.33898 14.9413 9.33303 15.3422 9.58223 15.5981L11.7315 17.6744C11.8576 17.7966 12.0288 17.8654 12.2074 17.8654C12.386 17.8654 12.5572 17.7966 12.6833 17.6744L14.8326 15.5981C15.0029 15.4338 15.0695 15.1941 15.0074 14.9694C14.9453 14.7446 14.7639 14.569 14.5315 14.5087C14.2991 14.4483 14.0511 14.5123 13.8808 14.6767L12.2074 16.2957L10.5326 14.6767Z" fill="#2D3748"/>
</svg>
