<svg width="12" height="12" viewBox="0 0 12 12" fill="none" xmlns="http://www.w3.org/2000/svg">
<path d="M1 11H10.9861M1 11V8.4336L5.99306 3.30081M1 11L3.49653 11L8.48959 5.8672M5.99306 3.30081L7.78347 1.46028L7.78455 1.45919C8.03101 1.20584 8.15446 1.07893 8.29676 1.0314C8.42211 0.989533 8.55715 0.989533 8.68251 1.0314C8.82471 1.0789 8.94802 1.20566 9.19412 1.45865L10.28 2.57491C10.5272 2.82899 10.6508 2.95609 10.6971 3.10259C10.7378 3.23145 10.7378 3.37025 10.6971 3.49912C10.6508 3.64551 10.5274 3.77241 10.2805 4.02614L10.28 4.02668L8.48959 5.8672M5.99306 3.30081L8.48959 5.8672" stroke="#C09966" stroke-width="2" stroke-linecap="round" stroke-linejoin="round"/>
</svg>
