<svg width="15" height="14" viewBox="0 0 15 14" fill="none" xmlns="http://www.w3.org/2000/svg">
<path d="M11.8183 10.3333C12.4904 10.3333 12.8265 10.3333 13.0915 10.2318C13.445 10.0964 13.7257 9.83682 13.8721 9.51011C13.9819 9.26509 13.982 8.95472 13.982 8.33346V5.79794C13.982 5.05266 13.982 4.67947 13.8249 4.39453C13.6866 4.14365 13.4654 3.93982 13.194 3.81199C12.9043 3.67558 12.5312 3.66721 11.8183 3.6667M11.8183 3.6667C11.7717 3.66667 11.7237 3.66667 11.6742 3.66667H3.30805C3.25842 3.66667 3.21031 3.66667 3.16366 3.6667M11.8183 3.6667L3.16366 3.6667M11.8183 3.6667V3.13127C11.8183 2.386 11.8183 2.0128 11.6612 1.72786C11.523 1.47698 11.3017 1.27316 11.0303 1.14532C10.7217 1 10.3184 1 9.51054 1H5.47171C4.66387 1 4.25964 1 3.95109 1.14532C3.67968 1.27316 3.45917 1.47698 3.32088 1.72786C3.16366 2.01308 3.16366 2.38673 3.16366 3.13346V3.6667M3.16366 3.6667C2.4509 3.66722 2.07703 3.67559 1.78743 3.81199C1.51601 3.93982 1.29551 4.14365 1.15722 4.39453C1 4.67975 1 5.05339 1 5.80013V8.33346C1 8.95472 1 9.26508 1.1098 9.51011C1.2562 9.83682 1.53682 10.0964 1.89026 10.2318C2.15534 10.3333 2.49138 10.3333 3.16347 10.3333M6.04854 6.33333H8.93343M5.32732 9H9.65465C10.3267 9 10.6628 9 10.9279 9.10149C11.2813 9.23682 11.562 9.49621 11.7084 9.82292C11.8182 10.0679 11.8182 10.3787 11.8182 11C11.8182 11.6213 11.8182 11.9319 11.7084 12.1769C11.562 12.5036 11.2813 12.7631 10.9279 12.8984C10.6628 12.9999 10.3267 13 9.65465 13H5.32732C4.65523 13 4.319 12.9999 4.05392 12.8984C3.70048 12.7631 3.41986 12.5038 3.27346 12.1771C3.16366 11.9321 3.16366 11.6211 3.16366 10.9998C3.16366 10.3786 3.16366 10.0679 3.27346 9.82292C3.41986 9.49621 3.70048 9.23682 4.05392 9.10149C4.319 9 4.65523 9 5.32732 9Z" stroke="#C09966" stroke-width="1.5" stroke-linecap="round" stroke-linejoin="round"/>
</svg>
