<svg width="15" height="15" viewBox="0 0 15 15" fill="none" xmlns="http://www.w3.org/2000/svg">
<path d="M1 3.60016V11.4002C1 12.3102 1 12.765 1.17711 13.1127C1.33291 13.4184 1.58132 13.6673 1.88708 13.8231C2.23435 14 2.68918 14 3.59749 14H11.4025C12.3108 14 12.765 14 13.1123 13.8231C13.418 13.6673 13.6673 13.4184 13.8231 13.1127C14 12.7654 14 12.3112 14 11.4029V3.59749C14 2.68918 14 2.23435 13.8231 1.88708C13.6673 1.58132 13.418 1.33291 13.1123 1.17711C12.7647 1 12.3102 1 11.4002 1H3.60016C2.69007 1 2.23469 1 1.88708 1.17711C1.58132 1.33291 1.33291 1.58132 1.17711 1.88708C1 2.23469 1 2.69007 1 3.60016Z" stroke="#C09966" stroke-width="2" stroke-linecap="round" stroke-linejoin="round"/>
</svg>
