<svg width="16" height="16" viewBox="0 0 16 16" fill="none" xmlns="http://www.w3.org/2000/svg">
<path fill-rule="evenodd" clip-rule="evenodd" d="M8.51644 5.88351C8.47919 5.84635 8.44964 5.80221 8.42947 5.75362C8.40931 5.70502 8.39893 5.65292 8.39893 5.60031C8.39893 5.5477 8.40931 5.4956 8.42947 5.447C8.44964 5.39841 8.47919 5.35427 8.51644 5.31711L10.9164 2.91711C10.9536 2.87992 10.9978 2.85042 11.0464 2.83029C11.095 2.81016 11.147 2.7998 11.1996 2.7998C11.2522 2.7998 11.3043 2.81016 11.3529 2.83029C11.4015 2.85042 11.4457 2.87992 11.4828 2.91711C11.52 2.9543 11.5495 2.99845 11.5697 3.04704C11.5898 3.09563 11.6001 3.14771 11.6001 3.20031C11.6001 3.25291 11.5898 3.30499 11.5697 3.35358C11.5495 3.40217 11.52 3.44632 11.4828 3.48351L9.08284 5.88351C9.04568 5.92076 9.00154 5.95031 8.95295 5.97048C8.90435 5.99065 8.85225 6.00102 8.79964 6.00102C8.74703 6.00102 8.69493 5.99065 8.64633 5.97048C8.59774 5.95031 8.5536 5.92076 8.51644 5.88351Z" fill="#6E757B"/>
<path fill-rule="evenodd" clip-rule="evenodd" d="M13.883 5.88351C13.8459 5.92076 13.8017 5.95031 13.7531 5.97048C13.7045 5.99065 13.6524 6.00102 13.5998 6.00102C13.5472 6.00102 13.4951 5.99065 13.4465 5.97048C13.3979 5.95031 13.3538 5.92076 13.3166 5.88351L10.9166 3.48351C10.8415 3.4084 10.7993 3.30653 10.7993 3.20031C10.7993 3.09409 10.8415 2.99222 10.9166 2.91711C10.9917 2.842 11.0936 2.7998 11.1998 2.7998C11.306 2.7998 11.4079 2.842 11.483 2.91711L13.883 5.31711C13.9203 5.35427 13.9498 5.39841 13.97 5.447C13.9902 5.4956 14.0005 5.5477 14.0005 5.60031C14.0005 5.65292 13.9902 5.70502 13.97 5.75362C13.9498 5.80221 13.9203 5.84635 13.883 5.88351Z" fill="#6E757B"/>
<path fill-rule="evenodd" clip-rule="evenodd" d="M11.1999 3.2002C11.306 3.2002 11.4077 3.24234 11.4828 3.31735C11.5578 3.39237 11.5999 3.49411 11.5999 3.6002V11.2002C11.5999 11.3063 11.5578 11.408 11.4828 11.483C11.4077 11.5581 11.306 11.6002 11.1999 11.6002C11.0938 11.6002 10.9921 11.5581 10.9171 11.483C10.8421 11.408 10.7999 11.3063 10.7999 11.2002V3.6002C10.7999 3.49411 10.8421 3.39237 10.9171 3.31735C10.9921 3.24234 11.0938 3.2002 11.1999 3.2002ZM7.48312 10.117C7.52037 10.1542 7.54992 10.1983 7.57009 10.2469C7.59025 10.2955 7.60063 10.3476 7.60063 10.4002C7.60063 10.4528 7.59025 10.5049 7.57009 10.5535C7.54992 10.6021 7.52037 10.6462 7.48312 10.6834L5.08312 13.0834C5.00801 13.1585 4.90614 13.2007 4.79992 13.2007C4.6937 13.2007 4.59183 13.1585 4.51672 13.0834C4.44161 13.0083 4.39941 12.9064 4.39941 12.8002C4.39941 12.694 4.44161 12.5921 4.51672 12.517L6.91672 10.117C6.95388 10.0797 6.99802 10.0502 7.04661 10.03C7.09521 10.0099 7.14731 9.99948 7.19992 9.99948C7.25253 9.99948 7.30463 10.0099 7.35323 10.03C7.40182 10.0502 7.44596 10.0797 7.48312 10.117Z" fill="#6E757B"/>
<path fill-rule="evenodd" clip-rule="evenodd" d="M2.11654 10.1175C2.15369 10.0803 2.19784 10.0507 2.24643 10.0305C2.29503 10.0104 2.34712 10 2.39974 10C2.45235 10 2.50445 10.0104 2.55305 10.0305C2.60164 10.0507 2.64578 10.0803 2.68294 10.1175L5.08294 12.5175C5.12013 12.5547 5.14963 12.5989 5.16976 12.6474C5.18988 12.696 5.20024 12.7481 5.20024 12.8007C5.20024 12.8533 5.18988 12.9054 5.16976 12.954C5.14963 13.0026 5.12013 13.0467 5.08294 13.0839C5.04575 13.1211 5.0016 13.1506 4.95301 13.1707C4.90441 13.1909 4.85233 13.2012 4.79974 13.2012C4.74714 13.2012 4.69506 13.1909 4.64647 13.1707C4.59788 13.1506 4.55373 13.1211 4.51654 13.0839L2.11654 10.6839C2.07929 10.6468 2.04973 10.6026 2.02957 10.554C2.0094 10.5054 1.99902 10.4533 1.99902 10.4007C1.99902 10.3481 2.0094 10.296 2.02957 10.2474C2.04973 10.1988 2.07929 10.1547 2.11654 10.1175Z" fill="#6E757B"/>
<path fill-rule="evenodd" clip-rule="evenodd" d="M4.7999 12.8004C4.69382 12.8004 4.59207 12.7582 4.51706 12.6832C4.44205 12.6082 4.3999 12.5065 4.3999 12.4004V4.80039C4.3999 4.6943 4.44205 4.59256 4.51706 4.51755C4.59207 4.44253 4.69382 4.40039 4.7999 4.40039C4.90599 4.40039 5.00773 4.44253 5.08275 4.51755C5.15776 4.59256 5.1999 4.6943 5.1999 4.80039V12.4004C5.1999 12.5065 5.15776 12.6082 5.08275 12.6832C5.00773 12.7582 4.90599 12.8004 4.7999 12.8004Z" fill="#6E757B"/>
</svg>
