<svg width="22" height="18" viewBox="0 0 22 18" fill="none" xmlns="http://www.w3.org/2000/svg">
<path d="M1 17H3M3 17H11M3 17V4.2002C3 3.08009 3 2.51962 3.21799 2.0918C3.40973 1.71547 3.71547 1.40973 4.0918 1.21799C4.51962 1 5.08009 1 6.2002 1H7.8002C8.9203 1 9.48006 1 9.90788 1.21799C10.2842 1.40973 10.5905 1.71547 10.7822 2.0918C11 2.5192 11 3.07899 11 4.19691V7.24609M11 17H19M11 17V7.24609M19 17H21M19 17V11.3682C19 10.843 19 10.5799 18.937 10.335C18.8812 10.1178 18.7889 9.91184 18.6647 9.72518C18.5245 9.51456 18.3295 9.33881 17.9387 8.9877L15.6387 6.92139C14.8827 6.2422 14.5045 5.90275 14.0771 5.77393C13.7007 5.66045 13.299 5.66045 12.9226 5.77393C12.4953 5.90273 12.1173 6.24235 11.3614 6.92139L11 7.24609" stroke="#C09966" stroke-width="2" stroke-linecap="round" stroke-linejoin="round"/>
</svg>
